<?xml version="1.0" standalone="no"?>
<!DOCTYPE svg PUBLIC "-//W3C//DTD SVG 20010904//EN"
 "http://www.w3.org/TR/2001/REC-SVG-20010904/DTD/svg10.dtd">
<svg version="1.0" xmlns="http://www.w3.org/2000/svg"
 width="365.000000pt" height="111.000000pt" viewBox="0 0 365.000000 111.000000"
 preserveAspectRatio="xMidYMid meet">

<g transform="translate(0.000000,111.000000) scale(0.100000,-0.100000)"
fill="#a3a3a3" stroke="none">
<path d="M1983 1083 c-28 -5 -30 -33 -3 -33 16 0 20 -7 20 -33 0 -26 -38 -156
-74 -254 -7 -17 -46 -4 -46 16 0 14 -2 14 -10 1 -5 -8 -12 -11 -16 -8 -17 18
-34 -26 -40 -106 -5 -58 -11 -86 -19 -86 -7 0 -18 -7 -25 -15 -7 -8 -22 -15
-34 -15 -17 0 -18 2 -6 10 13 9 11 13 -10 29 -13 11 -36 22 -49 24 l-25 5 24
-18 c24 -18 24 -19 6 -39 -11 -12 -24 -21 -31 -21 -6 0 -24 -13 -39 -29 -19
-20 -41 -31 -65 -33 -31 -3 -35 -7 -36 -29 0 -28 -94 -139 -117 -139 -10 0 -9
3 2 10 13 8 12 12 -6 28 -11 10 -33 21 -49 24 -30 6 -30 6 -8 -9 18 -12 21
-19 12 -34 -8 -15 -21 -19 -69 -19 -32 0 -62 4 -65 10 -3 6 -1 10 5 10 6 0 8
5 5 10 -10 16 -58 12 -52 -4 4 -10 -9 -22 -40 -37 -42 -20 -54 -21 -167 -15
-66 3 -272 13 -456 21 -184 8 -366 17 -405 19 l-70 5 53 -25 c108 -49 255
-170 300 -246 l16 -28 1546 0 1546 0 34 35 c19 19 52 47 74 62 l40 28 -95 6
c-52 4 -132 7 -179 8 -54 1 -96 7 -114 16 -15 8 -31 13 -35 11 -4 -3 -13 -1
-21 5 -11 6 -12 9 -2 9 7 0 10 5 7 10 -3 6 -17 10 -31 10 -18 0 -24 -5 -22
-17 2 -10 -4 -18 -12 -18 -8 -1 -23 -5 -33 -9 -23 -11 -67 1 -67 18 0 7 -18
18 -40 25 -22 6 -40 18 -40 25 0 7 -15 19 -32 27 -27 11 -32 19 -29 39 1 13 9
33 17 44 21 30 17 36 -21 36 -19 0 -35 5 -35 10 0 6 -9 21 -20 33 l-21 21 23
17 22 17 -29 -6 c-16 -3 -38 -13 -48 -23 -17 -15 -17 -18 -2 -26 14 -8 13 -11
-9 -21 -21 -9 -27 -8 -35 6 -9 15 -10 14 -11 -5 0 -14 -6 -23 -15 -23 -8 0
-15 4 -15 10 0 5 -13 32 -30 58 -16 27 -30 59 -30 71 0 12 -7 24 -15 27 -10 4
-14 22 -13 62 1 85 0 88 -14 74 -7 -7 -11 -36 -10 -72 1 -46 -2 -62 -13 -66
-8 -4 -15 -15 -15 -26 0 -16 -47 -113 -66 -137 -2 -2 -31 8 -64 23 -101 46
-209 47 -250 4 -18 -19 -22 -20 -45 -8 -22 12 -25 20 -25 73 0 44 -5 65 -20
84 -24 30 -26 71 -5 79 22 9 19 44 -3 44 -34 0 -50 63 -54 210 -3 127 -2 134
17 140 23 6 32 30 11 30 -8 0 -20 2 -28 4 -7 2 -23 1 -35 -1z m625 -617 c3
-61 1 -67 -15 -64 -14 2 -19 15 -21 57 -4 61 3 84 21 79 7 -3 13 -29 15 -72z"/>
<path d="M2275 564 c-62 -33 -104 -66 -99 -79 8 -21 37 -28 49 -12 5 8 29 24
53 36 36 18 41 24 33 40 -6 10 -7 21 -4 25 10 9 1 7 -32 -10z"/>
</g>
</svg>
