<?xml version="1.0" standalone="no"?>
<!DOCTYPE svg PUBLIC "-//W3C//DTD SVG 20010904//EN"
 "http://www.w3.org/TR/2001/REC-SVG-20010904/DTD/svg10.dtd">
<svg version="1.0" xmlns="http://www.w3.org/2000/svg"
 width="340.000000pt" height="340.000000pt" viewBox="0 0 340.000000 340.000000"
 preserveAspectRatio="xMidYMid meet">

<g transform="translate(0.000000,340.000000) scale(0.100000,-0.100000)"
fill="#F2C14E" stroke="none">
<path d="M1177 3324 c-4 -4 -7 -252 -7 -551 l0 -543 -547 -2 c-479 -3 -548 -5
-548 -18 0 -13 69 -15 548 -18 l547 -2 0 -490 0 -490 -547 -2 c-479 -3 -548
-5 -548 -18 0 -13 69 -15 547 -18 l548 -2 2 -548 c3 -478 5 -547 18 -547 13 0
15 69 18 548 l2 547 490 0 490 0 2 -547 c3 -479 5 -548 18 -548 13 0 15 69 18
547 l2 548 548 2 c478 3 547 5 547 18 0 13 -69 15 -547 18 l-548 2 0 490 0
490 548 2 c478 3 547 5 547 18 0 13 -69 15 -547 18 l-548 2 -2 548 c-3 478 -5
547 -18 547 -13 0 -15 -69 -18 -547 l-2 -548 -490 0 -490 0 -2 547 c-3 525 -6
572 -31 547z m1013 -1624 l0 -490 -490 0 -490 0 0 490 0 490 490 0 490 0 0
-490z"/>
</g>
</svg>
